# xmcd
#
# Track frame offsets:
#	150
#	14921
#	35180
#	63162
#	78240
#	95922
#	114360
#	137943
#	167623
#	188951
#	200783
#	223826
#	250436
#	266694
#
# Disc length: 3765 seconds
#
# Revision: 0
# Processed by: cddbd v1.5.1PL2 Copyright (c) Steve Scherf et al.
# Submitted via: audiograbber 1.83.01
#
DISCID=dd0eb30e
DTITLE=Bryan Adams - So Far So Good 
DYEAR=1900
DGENRE=
TTITLE0=It's only Love
TTITLE1=Can't stop this Thing we start
TTITLE2=Do I have to say the Words
TTITLE3=This Time
TTITLE4=Run to You
TTITLE5=Heaven
TTITLE6=Cuts like a Knife
TTITLE7=(Everything I do) I do it for
TTITLE8=Somebody
TTITLE9=Kids wanna Rock
TTITLE10=Heat of the Night
TTITLE11=Please forgive me
TTITLE12=Summer of '69
TTITLE13=Straight from the Heart
EXTD=
EXTT0=
EXTT1=
EXTT2=
EXTT3=
EXTT4=
EXTT5=
EXTT6=
EXTT7=
EXTT8=
EXTT9=
EXTT10=
EXTT11=
EXTT12=
EXTT13=
PLAYORDER=
